<svg width="14" height="17" viewBox="0 0 14 17" fill="none" xmlns="http://www.w3.org/2000/svg">
<path opacity="0.28" fill-rule="evenodd" clip-rule="evenodd" d="M1.97461 8.15608C1.97461 7.38807 1.96063 6.63706 1.97461 5.88706C2.03314 3.45344 3.8338 1.41471 6.24157 1.05607C8.65088 0.679698 10.9793 2.09974 11.7476 4.41407C11.9073 5.00117 11.994 5.60572 12.0056 6.21406C12.0476 6.85505 12.0156 7.50206 12.0156 8.12406C12.0746 8.15608 12.0956 8.17805 12.1157 8.17607C13.0666 8.11106 13.4986 8.69605 13.4826 9.62507C13.4496 11.5661 13.4556 13.5081 13.4826 15.4501C13.532 15.8274 13.4034 16.2062 13.1346 16.4755C12.8657 16.7448 12.487 16.8739 12.1097 16.8251C8.69763 16.7918 5.28534 16.7918 1.87262 16.8251C1.49469 16.8725 1.11627 16.7414 0.848569 16.4704C0.58093 16.1994 0.454526 15.8194 0.50665 15.4421C0.537656 13.4771 0.515683 11.5121 0.515683 9.5421C0.515683 8.58409 0.853696 8.2321 1.81561 8.18309C1.8446 8.18507 1.8786 8.17408 1.97461 8.15608ZM4.07464 8.16609H9.8576C9.8656 8.06608 9.87957 7.98509 9.87762 7.9051C9.86358 7.14109 9.89862 6.37211 9.8186 5.61509C9.64605 4.22816 8.47711 3.18086 7.07959 3.16111C5.70831 3.09089 4.48987 4.02928 4.20758 5.37309C4.1087 6.3007 4.06396 7.23329 4.07361 8.16609H4.07464Z" fill="black"/>
</svg>
