<svg width="14" height="14" viewBox="0 0 14 14" fill="none" xmlns="http://www.w3.org/2000/svg">
<path d="M13.1662 5.54256L1.87062 0.120688C1.39476 -0.107751 0.857153 -0.00726077 0.46764 0.382815C0.0781266 0.772952 -0.0847881 1.37407 0.0425249 1.95155L1.04793 6.51249H5.97053C6.19705 6.51249 6.38072 6.72492 6.38072 6.98699C6.38072 7.24902 6.19708 7.46148 5.97053 7.46148H1.04793L0.0425249 12.0224C-0.0847881 12.5999 0.0780993 13.201 0.46764 13.5911C0.857946 13.982 1.39561 14.0813 1.87065 13.8533L13.1662 8.43141C13.6805 8.18457 14 7.63109 14 6.98699C14 6.34289 13.6805 5.78937 13.1662 5.54256Z" fill="#F4A135"/>
</svg>
