<svg width="16" height="16" viewBox="0 0 16 16" fill="none" xmlns="http://www.w3.org/2000/svg">
<path d="M8.00002 16C5.86315 16 3.85418 15.1678 2.34315 13.6569C0.832186 12.1458 3.05176e-05 10.1369 3.05176e-05 7.99999C3.05176e-05 5.86312 0.832186 3.85415 2.34315 2.34312C3.85418 0.832155 5.86315 0 8.00002 0C10.1369 0 12.1459 0.832155 13.6569 2.34312C15.1679 3.85415 16 5.86312 16 7.99999C16 10.1369 15.1679 12.1458 13.6569 13.6569C12.1459 15.1678 10.1369 16 8.00002 16H8.00002ZM8.00002 1.25C4.27806 1.25 1.25003 4.27803 1.25003 7.99999C1.25003 11.722 4.27806 14.75 8.00002 14.75C11.722 14.75 14.75 11.722 14.75 7.99999C14.75 4.27803 11.722 1.25 8.00002 1.25ZM10.9293 9.38086C10.6381 9.19552 10.2518 9.28136 10.0665 9.57261C10.0588 9.5847 9.28096 10.7831 7.96877 10.7831C6.65658 10.7831 5.87877 9.5847 5.87105 9.57261C5.68574 9.28139 5.29946 9.19555 5.00824 9.38086C4.71702 9.56617 4.63118 9.95249 4.81649 10.2437C4.86299 10.3167 5.97812 12.0331 7.96877 12.0331C9.95942 12.0331 11.0745 10.3168 11.121 10.2437C11.3064 9.95245 11.2205 9.56617 10.9293 9.38086ZM5.25002 5.15624C5.68149 5.15624 6.03127 5.50602 6.03127 5.93749C6.03127 6.36896 5.68149 6.71874 5.25002 6.71874C4.81855 6.71874 4.46877 6.36896 4.46877 5.93749C4.46877 5.50602 4.81855 5.15624 5.25002 5.15624ZM9.93752 5.93749C9.93752 6.36896 10.2873 6.71874 10.7188 6.71874C11.1502 6.71874 11.5 6.36896 11.5 5.93749C11.5 5.50602 11.1502 5.15624 10.7188 5.15624C10.2873 5.15624 9.93752 5.50602 9.93752 5.93749Z" fill="#959595"/>
</svg>
